<svg width="656" height="99" viewBox="0 0 656 99" fill="none" xmlns="http://www.w3.org/2000/svg">
<rect x="351" y="26" width="305" height="73" fill="#B1B1B1"/>
<path d="M370.805 85.148H361.53L376.476 40.416H385.91L401.492 85.148H392.217L388.825 75.025H374.038L370.805 85.148ZM376.635 67.022H386.122L381.299 52.5L376.635 67.022ZM425.984 40.416H436.637L443.156 75.873L449.728 40.416H458.579L449.675 85.095H437.114L431.284 51.069L425.507 85.095H413.264L404.36 40.416H413.211L419.783 75.873L425.984 40.416ZM470.942 85.148H461.667L476.613 40.416H486.047L501.629 85.148H492.354L488.962 75.025H474.175L470.942 85.148ZM476.772 67.022H486.259L481.436 52.5L476.772 67.022ZM538.17 85.148C537.004 82.3567 535.856 79.6007 534.725 76.88C533.595 74.124 532.446 71.315 531.28 68.453H521.475V85.148H512.253V40.416H532.393C534.973 40.416 537.146 40.6633 538.912 41.158C540.714 41.6527 542.181 42.4123 543.311 43.437C544.442 44.4617 545.255 45.769 545.749 47.359C546.279 48.949 546.544 50.8393 546.544 53.03V56.634C546.544 62.1107 544.424 65.6087 540.184 67.128C541.492 70.2373 542.799 73.2407 544.106 76.138C545.414 79.0353 546.739 82.0387 548.081 85.148H538.17ZM531.386 60.609C533.506 60.609 535.026 60.238 535.944 59.496C536.898 58.754 537.375 57.535 537.375 55.839V53.03C537.375 51.334 536.898 50.115 535.944 49.373C535.026 48.631 533.506 48.26 531.386 48.26H521.475V60.609H531.386ZM558.802 85.148V40.416H579.313C582.069 40.416 584.419 40.7163 586.362 41.317C588.341 41.9177 589.931 42.8363 591.132 44.073C592.369 45.3097 593.27 46.8997 593.835 48.843C594.401 50.7863 594.683 53.1007 594.683 55.786V69.831C594.683 72.5163 594.401 74.8307 593.835 76.774C593.27 78.682 592.369 80.2543 591.132 81.491C589.931 82.763 588.341 83.6817 586.362 84.247C584.419 84.8477 582.069 85.148 579.313 85.148H558.802ZM578.306 77.357C580.85 77.357 582.688 76.7917 583.818 75.661C584.949 74.495 585.514 72.534 585.514 69.778V55.839C585.514 53.0477 584.949 51.0867 583.818 49.956C582.723 48.8253 580.886 48.26 578.306 48.26H568.024V77.357H578.306ZM607.534 77.357H626.296C628.098 77.357 629.405 76.9507 630.218 76.138C631.03 75.29 631.437 74.124 631.437 72.64V71.156C631.437 69.672 630.96 68.5237 630.006 67.711C629.087 66.8983 627.815 66.4743 626.19 66.439H617.127C613.311 66.439 610.537 65.5203 608.806 63.683C607.074 61.8457 606.209 59.1603 606.209 55.627V51.228C606.209 47.6947 607.074 45.0093 608.806 43.172C610.537 41.3347 613.311 40.416 617.127 40.416H638.804V48.26H620.572C618.77 48.26 617.462 48.684 616.65 49.532C615.837 50.3447 615.431 51.493 615.431 52.977V53.878C615.431 55.468 615.837 56.6517 616.65 57.429C617.462 58.2063 618.77 58.595 620.572 58.595H629.741C633.521 58.595 636.277 59.5667 638.009 61.51C639.775 63.4533 640.659 66.174 640.659 69.672V74.336C640.659 77.8693 639.793 80.5547 638.062 82.392C636.33 84.2293 633.557 85.148 629.741 85.148H607.534V77.357Z" fill="white"/>
<path d="M77.8251 19.4534C77.8251 23.03 74.9249 25.9302 71.3368 25.9302H58.3602C54.7722 25.9302 51.8719 23.03 51.8719 19.4534V6.49976C51.8719 2.91171 54.7722 0 58.3602 0H71.3368C74.9249 0 77.8251 2.91171 77.8251 6.49976V19.4534Z" fill="#D70051"/>
<path d="M45.4066 38.8266C45.4066 38.8266 32.3498 38.8266 32.3039 38.8266C28.7846 38.7463 25.9646 35.892 25.9646 32.3498V19.3846C25.9532 15.8195 23.0415 12.9078 19.4649 12.9078H6.48829C2.90024 12.9078 0 15.8195 0 19.3846V32.3383C0 35.9149 2.90024 38.8037 6.48829 38.8037C6.48829 38.8037 19.4763 38.8037 19.4878 38.8037C23.0529 38.8151 25.9302 41.7039 25.9532 45.2576V58.2571C25.9532 61.8337 28.8534 64.7454 32.4415 64.7454H45.418C48.9946 64.7454 51.9063 61.8337 51.9063 58.2571V45.2919C51.9063 41.7154 48.9946 38.8151 45.418 38.8151" fill="#D70051"/>
<path d="M135.36 37.0956C135.36 35.7544 134.237 34.6653 132.861 34.6653L122.899 35.2385V37.6688H124.149C124.424 37.6917 125.639 37.8407 125.673 39.159L125.788 50.6568H116.319V58.0278H125.845L126.029 77.0112H133.755C134.638 77.0112 135.349 76.3119 135.349 75.4636V37.0841L135.36 37.0956Z" fill="#231815"/>
<path d="M102.288 85.7463C101.405 85.7463 100.695 85.0585 100.695 84.1987L101.256 75.9909C101.256 74.6497 100.133 73.5607 98.7574 73.5607L88.2225 73.8473V76.2775H89.7472C90.0338 76.3005 91.2374 76.4609 91.2833 77.7678L90.7216 87.6951H90.733C90.7445 90.3775 92.9684 92.5441 95.7081 92.5441H136.839V85.4483L102.277 85.7349L102.288 85.7463Z" fill="#231815"/>
<path d="M103.469 45.9912H113.545C114.416 45.9912 115.127 45.2919 115.127 44.4551V44.1914V38.9183H82.9951V46.0027H93.4842C93.9542 59.0366 79.0059 65.7656 79.0059 65.7656L83.0295 70.9127L83.0983 70.9929C83.339 71.2795 83.7059 71.4629 84.1071 71.4629C84.3249 71.4629 84.5198 71.4171 84.6917 71.3253C86.7207 70.2592 93.209 65.7427 97.3932 60.0568C97.6339 59.7358 98.0237 59.518 98.4707 59.518C98.9178 59.518 99.3076 59.7244 99.5483 60.0453C103.583 65.4905 109.223 70.5114 111.516 71.7495C111.7 71.8527 111.917 71.9214 112.147 71.9214C112.617 71.9214 113.018 71.6922 113.247 71.3368L117.282 65.9375C117.282 65.9375 102.598 58.7271 103.423 45.9912" fill="#231815"/>
<path d="M264.782 37.1529C264.782 35.8117 263.67 34.7227 262.294 34.7227L252.333 35.0092V37.4395H253.582C253.857 37.4624 255.072 37.6229 255.107 38.9297L255.485 77.0112H263.2C264.083 77.0112 264.782 76.3119 264.782 75.4636V37.1529Z" fill="#231815"/>
<path d="M232.169 85.7463C231.297 85.7463 230.587 85.0585 230.587 84.1988L231.148 75.2802C231.148 73.939 230.025 72.85 228.649 72.85L218.114 73.1366V75.5783H219.65C219.937 75.5897 221.141 75.7502 221.187 77.0685L220.625 87.6951H220.636C220.636 90.3775 222.86 92.5441 225.611 92.5441H266.226V85.4483L232.169 85.7349V85.7463Z" fill="#231815"/>
<path d="M243.987 69.4683C243.987 69.4683 244.045 69.3995 244.079 69.3651L248.653 64.3785C248.653 64.3785 233.819 54.1761 234.691 43.6183L234.656 39.3195C234.736 37.9897 233.67 36.9122 232.283 36.9122L222.207 37.2102L222.058 39.629H223.319C223.594 39.6405 225.153 40.0302 225.107 41.337L224.958 43.8017C224.591 56.6636 208.852 64.4014 208.852 64.4014L212.922 69.9383C213.151 70.2248 213.518 70.4197 213.942 70.4083C214.183 70.4083 214.423 70.3395 214.63 70.2363C217.071 68.9409 224.465 63.2092 228.615 57.6609C228.867 57.317 229.291 57.0878 229.761 57.0878C230.163 57.0878 230.506 57.2597 230.736 57.5119C230.747 57.5463 230.782 57.5922 230.804 57.6151V57.638H230.827C234.519 63.1863 239.975 68.4824 242.211 69.7778H242.222C242.417 69.8809 242.635 69.9497 242.875 69.9497C243.311 69.9497 243.689 69.7549 243.964 69.4568L243.987 69.4683Z" fill="#231815"/>
<path d="M318.545 53.7519H293.681C292.856 53.7061 292.202 53.0527 292.179 52.2502L292.455 45.441H318.545V53.7519ZM328.53 39.95C328.53 39.0902 327.819 38.391 326.948 38.391C326.914 38.391 279.707 38.391 279.707 38.391V40.8212H280.957C281.243 40.8441 282.447 41.0046 282.481 42.3114C282.481 42.3114 282.195 55.8612 282.195 55.8956C282.195 58.5895 284.442 60.779 287.193 60.779C287.193 60.779 326.914 60.779 326.925 60.779C327.796 60.779 328.496 60.1027 328.518 59.2429V60.2975C328.518 54.6919 328.518 39.9614 328.518 39.9385" fill="#231815"/>
<path d="M294.908 85.7463C294.037 85.7463 293.326 85.0585 293.326 84.1988L293.601 79.281C293.601 77.9283 292.478 76.8393 291.102 76.8393L280.567 77.1258V79.5676H282.092C282.378 79.579 283.582 79.7395 283.628 81.0578L283.341 87.6837H283.353C283.364 90.3661 285.588 92.5327 288.328 92.5327H329.952V85.4368L294.885 85.7234L294.908 85.7463Z" fill="#231815"/>
<path d="M333.792 65.4446H276.692V72.529H302.084V80.9202H309.902C310.773 80.9202 311.495 80.2324 311.495 79.3727V72.529H333.792V65.4446Z" fill="#231815"/>
<path d="M206.41 56.4688H196.942V37.1529C196.942 35.8117 195.83 34.7227 194.443 34.7227L184.481 35.0092V37.4395H185.73C186.017 37.4624 187.221 37.6229 187.255 38.9297L187.782 94H195.348C196.231 94 196.93 93.3007 196.93 92.4409V63.8283H206.399V56.4573L206.41 56.4688Z" fill="#231815"/>
<path d="M168.501 50.9892V46.1173H178.875C179.746 46.1173 180.469 45.4295 180.469 44.5697V44.9939V41.1192V41.7497V39.0214H146.95V46.1058H158.333V50.9778C158.459 56.0904 157.53 66.3273 143.545 75.5897L148.199 80.7941H148.222C148.463 81.0578 148.818 81.2297 149.208 81.2297C149.54 81.2297 149.838 81.1036 150.068 80.9087C152.567 79.0517 158.929 73.8129 162.631 67.3017C162.861 66.9234 163.285 66.6712 163.766 66.6712C164.248 66.6712 164.672 66.9234 164.913 67.3131C164.913 67.3131 164.913 67.3131 164.913 67.3246C168.913 73.8931 174.393 78.8453 176.846 80.668C177.064 80.84 177.351 80.9431 177.649 80.9431C178.027 80.9431 178.371 80.7826 178.612 80.5305L183.3 75.5897C169.853 65.8114 168.489 55.9873 168.501 50.9778" fill="#231815"/>
</svg>
