<svg width="292" height="82" viewBox="0 0 292 82" fill="none" xmlns="http://www.w3.org/2000/svg">
<path d="M67.89 16.97C67.89 20.09 65.36 22.62 62.23 22.62H50.91C47.78 22.62 45.25 20.09 45.25 16.97V5.67C45.25 2.54 47.78 0 50.91 0H62.23C65.36 0 67.89 2.54 67.89 5.67V16.97Z" fill="#D70051"/>
<path d="M39.61 33.87C39.61 33.87 28.22 33.87 28.18 33.87C25.11 33.8 22.65 31.31 22.65 28.22V16.91C22.64 13.8 20.1 11.26 16.98 11.26H5.66C2.53 11.26 0 13.8 0 16.91V28.21C0 31.33 2.53 33.85 5.66 33.85C5.66 33.85 16.99 33.85 17 33.85C20.11 33.86 22.62 36.38 22.64 39.48V50.82C22.64 53.94 25.17 56.48 28.3 56.48H39.62C42.74 56.48 45.28 53.94 45.28 50.82V39.51C45.28 36.39 42.74 33.86 39.62 33.86" fill="#D70051"/>
<path d="M118.08 32.36C118.08 31.19 117.1 30.24 115.9 30.24L107.21 30.74V32.86H108.3C108.54 32.88 109.6 33.01 109.63 34.16L109.73 44.19H101.47V50.62H109.78L109.94 67.18H116.68C117.45 67.18 118.07 66.57 118.07 65.83V32.35L118.08 32.36Z" fill="#231815"/>
<path d="M89.2301 74.7999C88.4601 74.7999 87.8401 74.1999 87.8401 73.4499L88.3301 66.2899C88.3301 65.1199 87.3501 64.1699 86.1501 64.1699L76.9601 64.4199V66.5399H78.2901C78.5401 66.5599 79.5901 66.6999 79.6301 67.8399L79.1401 76.4999H79.1501C79.1601 78.8399 81.1001 80.7299 83.4901 80.7299H119.37V74.5399L89.2201 74.7899L89.2301 74.7999Z" fill="#231815"/>
<path d="M90.26 40.1199H99.05C99.81 40.1199 100.43 39.5099 100.43 38.7799V38.5499V33.95H72.4V40.13H81.55C81.96 51.5 68.92 57.3699 68.92 57.3699L72.43 61.86L72.49 61.93C72.7 62.18 73.02 62.34 73.37 62.34C73.56 62.34 73.73 62.3 73.88 62.22C75.65 61.29 81.31 57.3499 84.96 52.3899C85.17 52.1099 85.51 51.9199 85.9 51.9199C86.29 51.9199 86.63 52.1 86.84 52.38C90.36 57.13 95.28 61.51 97.28 62.59C97.44 62.68 97.63 62.74 97.83 62.74C98.24 62.74 98.59 62.5399 98.79 62.2299L102.31 57.52C102.31 57.52 89.5 51.2299 90.22 40.1199" fill="#231815"/>
<path d="M230.98 32.41C230.98 31.24 230.01 30.29 228.81 30.29L220.12 30.54V32.66H221.21C221.45 32.68 222.51 32.82 222.54 33.96L222.87 67.18H229.6C230.37 67.18 230.98 66.57 230.98 65.83V32.41Z" fill="#231815"/>
<path d="M202.53 74.8001C201.77 74.8001 201.15 74.2 201.15 73.45L201.64 65.67C201.64 64.5 200.66 63.55 199.46 63.55L190.27 63.8V65.93H191.61C191.86 65.94 192.91 66.0801 192.95 67.2301L192.46 76.5H192.47C192.47 78.84 194.41 80.7301 196.81 80.7301H232.24V74.5401L202.53 74.7901V74.8001Z" fill="#231815"/>
<path d="M212.84 60.5999C212.84 60.5999 212.89 60.5399 212.92 60.5099L216.91 56.16C216.91 56.16 203.97 47.2599 204.73 38.0499L204.7 34.2999C204.77 33.1399 203.84 32.2 202.63 32.2L193.84 32.4599L193.71 34.57H194.81C195.05 34.58 196.41 34.92 196.37 36.06L196.24 38.2099C195.92 49.43 182.19 56.18 182.19 56.18L185.74 61.0099C185.94 61.2599 186.26 61.4299 186.63 61.4199C186.84 61.4199 187.05 61.36 187.23 61.27C189.36 60.14 195.81 55.1399 199.43 50.2999C199.65 50 200.02 49.7999 200.43 49.7999C200.78 49.7999 201.08 49.9499 201.28 50.1699C201.29 50.1999 201.32 50.2399 201.34 50.2599V50.2799H201.36C204.58 55.1199 209.34 59.74 211.29 60.8699H211.3C211.47 60.9599 211.66 61.02 211.87 61.02C212.25 61.02 212.58 60.85 212.82 60.59L212.84 60.5999Z" fill="#231815"/>
<path d="M277.88 46.89H256.19C255.47 46.85 254.9 46.28 254.88 45.58L255.12 39.64H277.88V46.89ZM286.59 34.85C286.59 34.1 285.97 33.49 285.21 33.49C285.18 33.49 244 33.49 244 33.49V35.61H245.09C245.34 35.63 246.39 35.77 246.42 36.91C246.42 36.91 246.17 48.73 246.17 48.76C246.17 51.11 248.13 53.02 250.53 53.02C250.53 53.02 285.18 53.02 285.19 53.02C285.95 53.02 286.56 52.43 286.58 51.68V52.6C286.58 47.71 286.58 34.86 286.58 34.84" fill="#231815"/>
<path d="M257.26 74.8C256.5 74.8 255.88 74.2 255.88 73.45L256.12 69.16C256.12 67.98 255.14 67.03 253.94 67.03L244.75 67.28V69.41H246.08C246.33 69.42 247.38 69.56 247.42 70.71L247.17 76.49H247.18C247.19 78.83 249.13 80.72 251.52 80.72H287.83V74.53L257.24 74.78L257.26 74.8Z" fill="#231815"/>
<path d="M291.18 57.0901H241.37V63.2701H263.52V70.5901H270.34C271.1 70.5901 271.73 69.9901 271.73 69.2401V63.2701H291.18V57.0901Z" fill="#231815"/>
<path d="M180.06 49.26H171.8V32.41C171.8 31.24 170.83 30.29 169.62 30.29L160.93 30.54V32.66H162.02C162.27 32.68 163.32 32.82 163.35 33.96L163.81 82H170.41C171.18 82 171.79 81.39 171.79 80.64V55.68H180.05V49.25L180.06 49.26Z" fill="#231815"/>
<path d="M146.99 44.48V40.23H156.04C156.8 40.23 157.43 39.63 157.43 38.88V39.25V35.87V36.42V34.04H128.19V40.22H138.12V44.47C138.23 48.93 137.42 57.86 125.22 65.94L129.28 70.48H129.3C129.51 70.71 129.82 70.86 130.16 70.86C130.45 70.86 130.71 70.75 130.91 70.58C133.09 68.96 138.64 64.39 141.87 58.71C142.07 58.38 142.44 58.16 142.86 58.16C143.28 58.16 143.65 58.38 143.86 58.72C143.86 58.72 143.86 58.72 143.86 58.73C147.35 64.46 152.13 68.78 154.27 70.37C154.46 70.52 154.71 70.61 154.97 70.61C155.3 70.61 155.6 70.47 155.81 70.25L159.9 65.94C148.17 57.41 146.98 48.84 146.99 44.47" fill="#231815"/>
</svg>
