<svg width="422" height="100" viewBox="0 0 422 100" fill="none" xmlns="http://www.w3.org/2000/svg">
<g clip-path="url(#clip0_36_49)">
<path d="M76.67 47.39C68.05 41.53 57 43.92 51.2 52.73C46.36 60.09 39.05 61.01 36.21 61.01C26.99 61.01 20.67 54.52 18.8 47.8C18.78 47.73 18.77 47.68 18.75 47.61C18.73 47.53 18.71 47.46 18.69 47.38C17.96 44.58 17.77 43.24 17.77 40.26C17.77 24.2 34.24 6.32 57.98 6.32C81.72 6.32 96.18 24.82 99.77 35.1C99.71 34.92 99.65 34.74 99.59 34.55C92.69 14.46 73.62 0 51.17 0C22.92 0 0 22.91 0 51.17C0 76.43 18.22 98.06 43.49 98.06C63.65 98.06 77.19 86.76 83.41 71.18C86.82 62.66 84.4 52.65 76.66 47.39H76.67Z" fill="#003763"/>
<path d="M100.09 36.11C97.1 26.08 83.09 6.32996 57.98 6.32996C34.24 6.32996 17.77 24.21 17.77 40.27C17.77 43.25 17.95 44.59 18.69 47.39C18.38 46.16 18.22 44.94 18.22 43.74C18.22 27.02 34.97 15.43 52.18 15.43C75.48 15.43 94.37 34.32 94.37 57.62C94.37 75.89 83.86 91.69 68.58 99.29C88.27 92.17 102.33 73.32 102.33 51.17C102.33 45.93 101.63 41.31 100.08 36.11H100.09Z" fill="#E4022D"/>
<path d="M138.61 30.58L151.22 50.71L147.19 53.28L138.62 39.25L130.19 53.65L126.06 51.04L138.62 30.59L138.61 30.58ZM133.71 57.22V66.39H161.22V70.88H128.62V57.22H133.71ZM160.16 56.99H155.12V30.81H160.16V40.21H166.03V45.21H160.16V56.99Z" fill="#575756"/>
<path d="M191.19 41.0399C191.19 42.3899 190.92 43.6499 190.36 44.8199C189.81 45.9999 189.08 47.0299 188.16 47.9099C187.21 48.7999 186.11 49.4999 184.86 50.0199C183.61 50.5399 182.28 50.7999 180.87 50.7999C179.46 50.7999 178.14 50.5399 176.88 50.0199C175.63 49.4999 174.53 48.7999 173.58 47.9099C172.66 47.0299 171.93 45.9899 171.38 44.8199C170.83 43.6399 170.55 42.3799 170.55 41.0399C170.55 39.6999 170.83 38.4299 171.38 37.2299C171.93 36.0399 172.66 35.0199 173.58 34.1599C174.53 33.2399 175.63 32.5299 176.88 31.9999C178.13 31.4799 179.46 31.2199 180.87 31.2199C182.28 31.2199 183.61 31.4799 184.86 31.9999C186.11 32.5199 187.21 33.2399 188.16 34.1599C189.08 35.0199 189.81 36.0399 190.36 37.2299C190.91 38.4199 191.19 39.6899 191.19 41.0399ZM173.54 53.0999H178.54V57.1299H200.68V53.0999H205.68V70.8899H173.54V53.0999ZM186.33 41.0399C186.33 39.5399 185.79 38.2599 184.72 37.1899C183.65 36.1199 182.37 35.5899 180.87 35.5899C179.37 35.5899 178.1 36.1299 177.04 37.1899C175.99 38.2599 175.46 39.5399 175.46 41.0399C175.46 42.5399 175.99 43.8099 177.04 44.8699C178.09 45.9199 179.37 46.4499 180.87 46.4499C182.37 46.4499 183.65 45.9199 184.72 44.8699C185.79 43.8099 186.33 42.5399 186.33 41.0399ZM200.68 61.1199H178.54V66.7599H200.68V61.1199ZM200.59 30.8199H205.68V50.2599H200.59V42.5599H193.67V38.1099H200.59V30.8199Z" fill="#575756"/>
<path d="M250.24 54.1899H212.65V50.0199H228.93V47.3599H215.68V31.2699H247.18V35.4399H220.64V37.4599H247.18V41.2599H220.64V43.3199H247.28V47.3599H233.94V50.0199H250.26V54.1899H250.24ZM241.48 64.2299C241.48 65.5099 241.21 66.7199 240.68 67.8499C240.14 68.9799 239.43 69.9599 238.55 70.7799C237.63 71.6399 236.58 72.3199 235.39 72.8199C234.2 73.3199 232.91 73.5799 231.54 73.5799C230.17 73.5799 228.87 73.3299 227.67 72.8199C226.46 72.3199 225.4 71.6399 224.48 70.7799C223.59 69.9499 222.88 68.9799 222.35 67.8499C221.81 66.7199 221.55 65.5099 221.55 64.2299C221.55 62.9499 221.82 61.7499 222.35 60.6299C222.88 59.5099 223.59 58.5399 224.48 57.7199C225.4 56.8599 226.46 56.1799 227.67 55.6799C228.88 55.1799 230.17 54.9199 231.54 54.9199C232.91 54.9199 234.2 55.1699 235.39 55.6799C236.58 56.1799 237.64 56.8599 238.55 57.7199C239.44 58.5499 240.15 59.5099 240.68 60.6299C241.21 61.7499 241.48 62.9499 241.48 64.2299ZM236.57 64.1899C236.57 62.8099 236.08 61.6299 235.1 60.6399C234.12 59.6499 232.93 59.1499 231.52 59.1499C230.11 59.1499 228.91 59.6499 227.92 60.6399C226.92 61.6299 226.43 62.8199 226.43 64.1899C226.43 65.5599 226.93 66.7399 227.92 67.7199C228.91 68.6999 230.11 69.1899 231.52 69.1899C232.93 69.1899 234.12 68.6999 235.1 67.7199C236.08 66.7399 236.57 65.5699 236.57 64.1899Z" fill="#575756"/>
<path d="M274.81 51.0299L266.28 38.6099L257.8 51.3599L253.72 48.6599L266.28 30.3199L278.89 48.2499L274.81 51.0499V51.0299ZM286.09 62.9999C286.09 64.3799 285.81 65.6699 285.24 66.8699C284.67 68.0799 283.93 69.1399 283.01 70.0599C282.03 70.9799 280.9 71.6999 279.6 72.2399C278.3 72.7699 276.93 73.0399 275.49 73.0399C274.05 73.0399 272.68 72.7699 271.36 72.2399C270.05 71.6999 268.9 70.9799 267.92 70.0599C266.97 69.1399 266.22 68.0799 265.65 66.8699C265.08 65.66 264.8 64.3699 264.8 62.9999C264.8 61.6299 265.08 60.3299 265.65 59.1299C266.21 57.9199 266.97 56.8599 267.92 55.9399C268.9 55.0199 270.04 54.2999 271.36 53.7599C272.67 53.2299 274.05 52.9599 275.49 52.9599C276.93 52.9599 278.29 53.2299 279.6 53.7599C280.9 54.2899 282.04 55.0199 283.01 55.9399C283.93 56.8599 284.67 57.9199 285.24 59.1299C285.8 60.3399 286.09 61.6299 286.09 62.9999ZM281.14 62.9499C281.14 61.4199 280.58 60.1099 279.44 59.0099C278.31 57.9099 276.98 57.3599 275.45 57.3599C273.92 57.3599 272.6 57.9099 271.49 59.0099C270.37 60.1099 269.82 61.4299 269.82 62.9499C269.82 64.4699 270.38 65.8299 271.49 66.9199C272.61 67.9999 273.93 68.5499 275.45 68.5499C276.97 68.5499 278.31 68.0099 279.44 66.9199C280.57 65.8399 281.14 64.5099 281.14 62.9499ZM288.15 38.0999H294.02V43.0999H288.15V51.7699H283.11V30.8199H288.15V38.1099V38.0999Z" fill="#575756"/>
<path d="M297.18 37.8299V33.3399H321.57V37.8299H311.3L322.67 64.5599L318.22 66.4899L309.46 45.5799L300.84 66.8099L296.26 64.8899L307.63 37.8399H297.18V37.8299ZM330.97 71.7099H325.93V30.8099H330.97V46.6699H336.84V51.7599H330.97V71.6999V71.7099Z" fill="#575756"/>
<path d="M356.37 54.3799V59.8799H351.33V54.3799H340.19V50.1599H367.47V54.3799H356.38H356.37ZM347.84 57.9599V66.4899H377.05V70.8899H342.76V57.9599H347.85H347.84ZM363.29 39.4799C363.29 40.7299 363.02 41.9199 362.49 43.0299C361.95 44.1499 361.24 45.1299 360.35 45.9899C359.46 46.8199 358.43 47.4699 357.23 47.9599C356.04 48.4499 354.77 48.6899 353.42 48.6899C352.07 48.6899 350.81 48.4499 349.61 47.9599C348.42 47.4699 347.36 46.8099 346.45 45.9899C345.59 45.1299 344.9 44.1499 344.37 43.0299C343.83 41.9099 343.56 40.7299 343.56 39.4799C343.56 38.2299 343.83 37.0499 344.37 35.9499C344.9 34.8499 345.6 33.8699 346.45 33.0199C347.37 32.1599 348.42 31.4999 349.61 31.0299C350.8 30.5599 352.07 30.3199 353.42 30.3199C354.77 30.3199 356.03 30.5599 357.23 31.0299C358.42 31.4999 359.46 32.1699 360.35 33.0199C361.24 33.8799 361.95 34.8499 362.49 35.9499C363.02 37.0499 363.29 38.2299 363.29 39.4799ZM358.48 39.5299C358.48 38.1499 357.99 36.9899 357.01 36.0199C356.03 35.0599 354.84 34.5799 353.43 34.5799C352.02 34.5799 350.83 35.0599 349.85 36.0199C348.87 36.9799 348.38 38.1499 348.38 39.5299C348.38 40.9099 348.87 42.0699 349.85 43.0399C350.83 43.9999 352.02 44.4799 353.43 44.4799C354.84 44.4799 356.03 43.9999 357.01 43.0399C357.99 42.0799 358.48 40.9099 358.48 39.5299ZM370.9 46.5899H365.08V42.4199H370.9V30.8199H375.94V60.3499H370.9V46.5999V46.5899Z" fill="#575756"/>
<path d="M383.46 56.64H421.05V61.13H404.77V71.67H399.68V61.13H383.45V56.64H383.46ZM391.48 36.65H412.98V31.47H418.02V51.14H386.48V31.47H391.48V36.65ZM412.98 41.05H391.48V46.69H412.98V41.05Z" fill="#575756"/>
</g>
<defs>
<clipPath id="clip0_36_49">
<rect width="421.06" height="99.3" fill="white"/>
</clipPath>
</defs>
</svg>
