<svg width="511" height="100" viewBox="0 0 511 100" fill="none" xmlns="http://www.w3.org/2000/svg">
<g clip-path="url(#clip0_36_62)">
<path d="M76.57 47.33C67.96 41.47 56.92 43.86 51.13 52.67C46.29 60.03 38.99 60.94 36.16 60.94C26.95 60.94 20.64 54.46 18.77 47.75C18.75 47.68 18.74 47.63 18.72 47.56C18.7 47.48 18.68 47.41 18.66 47.33C17.93 44.53 17.74 43.19 17.74 40.22C17.74 24.18 34.2 6.32 57.9 6.32C81.6 6.32 96.06 24.8 99.64 35.07C99.58 34.89 99.52 34.71 99.46 34.52C92.58 14.44 73.53 0 51.11 0C22.89 0 0 22.88 0 51.11C0 76.34 18.2 97.94 43.44 97.94C63.57 97.94 77.11 86.65 83.31 71.1C86.72 62.59 84.3 52.59 76.57 47.34V47.33Z" fill="#003763"/>
<path d="M99.97 36.07C96.99 26.05 82.99 6.32996 57.91 6.32996C34.2 6.32996 17.75 24.19 17.75 40.23C17.75 43.2 17.93 44.54 18.67 47.34C18.36 46.12 18.2 44.89 18.2 43.69C18.2 26.99 34.93 15.41 52.12 15.41C75.4 15.41 94.26 34.28 94.26 57.55C94.26 75.8 83.76 91.59 68.5 99.17C88.16 92.06 102.21 73.23 102.21 51.11C102.21 45.88 101.51 41.26 99.96 36.07H99.97Z" fill="#E4022D"/>
<path d="M161.08 63.39V67.98H134.04V63.39H142.54V49.8H147.68V63.39H161.08ZM153.38 58.57V37.56H135.59V33.01H158.47V58.57H153.38ZM169.44 72.11H164.26V30.73H169.44V48.17H174.76V53.04H169.44V72.1V72.11Z" fill="#575556"/>
<path d="M200.42 33.33V37.78H176.14V33.33H185.67V29.9H191.13V33.33H200.42ZM177.87 58H210.65V71.73H205.51V62.55H177.87V58.01V58ZM198.04 47.38C198.04 48.59 197.78 49.73 197.27 50.81C196.76 51.89 196.08 52.84 195.24 53.64C194.34 54.41 193.31 55.04 192.16 55.52C191.01 56 189.76 56.24 188.42 56.24C187.08 56.24 185.83 56 184.66 55.52C183.49 55.04 182.47 54.41 181.6 53.64C180.73 52.84 180.04 51.89 179.52 50.81C179.01 49.73 178.75 48.58 178.75 47.38C178.75 46.18 179.01 45.04 179.52 43.97C180.03 42.9 180.73 41.97 181.6 41.16C182.47 40.39 183.49 39.76 184.66 39.28C185.83 38.8 187.08 38.56 188.42 38.56C189.76 38.56 191 38.8 192.16 39.28C193.31 39.76 194.34 40.39 195.24 41.16C196.08 41.96 196.76 42.9 197.27 43.97C197.78 45.04 198.04 46.17 198.04 47.38ZM193.09 47.33C193.09 46.09 192.63 45.03 191.71 44.15C190.79 43.27 189.69 42.83 188.42 42.83C187.15 42.83 186.05 43.27 185.15 44.15C184.25 45.03 183.8 46.09 183.8 47.33C183.8 48.57 184.25 49.63 185.15 50.53C186.05 51.43 187.14 51.88 188.42 51.88C189.7 51.88 190.79 51.43 191.71 50.53C192.63 49.63 193.09 48.57 193.09 47.33ZM210.65 55.68H205.51V30.73H210.65V40.42H216.63V45.47H210.65V55.67V55.68Z" fill="#575556"/>
<path d="M239.98 66.68H234.8V37.92H218.83V33.28H239.98V66.67V66.68ZM250.39 30.73H255.57V72.1H250.39V30.73Z" fill="#575556"/>
<path d="M277.77 54.2001V51.0001H261.24V46.7801H299.53V51.0001H282.95V54.2001H296.45V64.6801H269.41V67.1801H297.01V71.4001H264.32V60.6401H291.31V58.2701H264.32V54.1901H277.77V54.2001ZM280.39 35.6001L265.82 45.8501L262.74 42.2801L280.39 29.9401L298.04 42.2801L294.96 45.8501L280.39 35.6001Z" fill="#575556"/>
<path d="M303.28 36.35V31.94H327.19V36.35H317.01L327.61 49.2L324.01 52.17L315.42 41.55L306.97 52.87L303.23 49.9L313.83 36.36H303.28V36.35ZM336.39 63.3C336.39 64.69 336.1 66 335.53 67.22C334.95 68.44 334.18 69.52 333.22 70.44C332.25 71.37 331.11 72.1 329.79 72.64C328.47 73.18 327.06 73.45 325.56 73.45C324.06 73.45 322.7 73.18 321.36 72.64C320.02 72.1 318.87 71.36 317.9 70.44C316.93 69.51 316.16 68.44 315.59 67.22C315.01 66 314.73 64.69 314.73 63.3C314.73 61.91 315.02 60.6 315.59 59.38C316.17 58.16 316.94 57.08 317.9 56.16C318.86 55.23 320.02 54.5 321.36 53.96C322.7 53.42 324.1 53.15 325.56 53.15C327.02 53.15 328.46 53.42 329.79 53.96C331.11 54.5 332.26 55.24 333.22 56.16C334.18 57.09 334.95 58.16 335.53 59.38C336.11 60.6 336.39 61.91 336.39 63.3ZM331.3 63.25C331.3 61.7 330.73 60.37 329.6 59.26C328.46 58.15 327.1 57.59 325.51 57.59C323.92 57.59 322.61 58.15 321.49 59.26C320.37 60.37 319.81 61.7 319.81 63.25C319.81 64.8 320.37 66.16 321.49 67.26C322.61 68.36 323.95 68.91 325.51 68.91C327.07 68.91 328.46 68.36 329.6 67.26C330.74 66.16 331.3 64.82 331.3 63.25ZM334.76 52.67V43.72H327.01V39.27H334.76V30.74H339.94V52.68H334.76V52.67Z" fill="#575556"/>
<path d="M375.68 38.85V32.5H380.82V56.15H367.32V64.5H383.9V69.04H345.61V64.5H362.14V56.15H348.69V32.5H353.78V38.85H375.68ZM375.68 51.65V43.3H353.78V51.65H375.68Z" fill="#575556"/>
<path d="M390.87 47.94V31.15H422.95V35.32H396.01V37.5H422.77V41.54H396.01V43.86H423.09V47.94H409.5V50.58H426.08V54.8H387.79V50.58H404.32V47.94H390.87ZM417.11 64.82C417.11 66.06 416.85 67.23 416.34 68.32C415.83 69.42 415.12 70.38 414.22 71.22C413.25 72.05 412.16 72.72 410.93 73.21C409.7 73.7 408.37 73.95 406.94 73.95C405.51 73.95 404.22 73.7 402.97 73.21C401.72 72.71 400.64 72.05 399.7 71.22C398.77 70.39 398.04 69.42 397.53 68.32C397.02 67.22 396.76 66.06 396.76 64.82C396.76 63.58 397.02 62.38 397.53 61.3C398.04 60.22 398.77 59.24 399.7 58.38C400.63 57.55 401.72 56.89 402.97 56.41C404.21 55.93 405.54 55.69 406.94 55.69C408.34 55.69 409.7 55.93 410.93 56.41C412.16 56.89 413.26 57.55 414.22 58.38C415.12 59.25 415.83 60.22 416.34 61.3C416.85 62.38 417.11 63.56 417.11 64.82ZM411.97 64.77C411.97 63.41 411.47 62.25 410.48 61.29C409.48 60.33 408.3 59.85 406.93 59.85C405.56 59.85 404.37 60.33 403.36 61.29C402.35 62.25 401.84 63.41 401.84 64.77C401.84 66.13 402.35 67.3 403.36 68.27C404.37 69.24 405.56 69.73 406.93 69.73C408.3 69.73 409.48 69.24 410.48 68.27C411.48 67.3 411.97 66.13 411.97 64.77Z" fill="#575556"/>
<path d="M442.48 30.5L455.6 51.6L451.4 54.2L442.48 39.36L433.61 54.53L429.31 51.93L442.48 30.5ZM432.72 71.27V57.45H437.86V66.73H466.86V71.27H432.73H432.72ZM461.3 57.22V30.74H466.48V57.22H461.3Z" fill="#575556"/>
<path d="M472.14 56.8901H510.43V61.4301H493.85V72.1001H488.67V61.4301H472.14V56.8901ZM480.31 36.6701H502.21V31.4301H507.35V51.3301H475.22V31.4301H480.31V36.6701ZM502.21 41.1201H480.31V46.8201H502.21V41.1201Z" fill="#575556"/>
</g>
<defs>
<clipPath id="clip0_36_62">
<rect width="510.44" height="99.18" fill="white"/>
</clipPath>
</defs>
</svg>
