<svg width="287" height="125" viewBox="0 0 287 125" fill="none" xmlns="http://www.w3.org/2000/svg">
<path d="M63.99 3.1C63.99 1.6 62.74 0.380005 61.2 0.380005L50.06 1.02V3.74001H51.46C51.77 3.76001 53.13 3.94 53.16 5.41L53.3 18.28H42.71V26.53L53.37 26.55L53.57 47.79H62.22C63.21 47.79 64 47.01 64 46.06V3.11L63.99 3.1Z" fill="#231F20"/>
<path d="M26.99 57.54C26.01 57.54 25.21 56.76 25.21 55.81L25.84 46.62C25.84 45.11 24.59 43.9 23.05 43.9L11.26 44.22V46.95H12.97C13.29 46.97 14.64 47.15 14.7 48.62L14.06 59.72H14.08C14.1 62.73 16.58 65.16 19.65 65.16H65.67V57.22L27 57.54H26.99Z" fill="#231F20"/>
<path d="M28.31 13.04H39.58C40.56 13.04 41.35 12.26 41.36 11.32V11.02V5.12H5.41002V13.05H17.15C17.68 27.64 0.950012 35.17 0.950012 35.17L5.45001 40.93L5.52001 41.03C5.79001 41.35 6.20002 41.56 6.65002 41.56L7.31001 41.41C9.58001 40.22 16.84 35.16 21.53 28.8C21.8 28.44 22.23 28.2 22.73 28.2C23.23 28.2 23.66 28.44 23.93 28.79C28.45 34.89 34.75 40.5 37.32 41.89L38.03 42.08C38.56 42.08 39.01 41.81 39.27 41.42L43.79 35.38C43.79 35.38 27.36 27.32 28.28 13.05" fill="#231F20"/>
<path d="M208.82 3.16C208.82 1.65 207.57 0.440002 206.03 0.440002L194.88 0.760002V3.48H196.28C196.6 3.51 197.95 3.68001 197.98 5.15001L198.4 47.78H207.04C208.03 47.78 208.82 47 208.82 46.05V3.17V3.16Z" fill="#231F20"/>
<path d="M172.32 57.54C171.34 57.54 170.55 56.76 170.54 55.81L171.17 45.83C171.17 44.33 169.92 43.11 168.37 43.11L156.58 43.43V46.16H158.3C158.62 46.18 159.97 46.36 160.02 47.83L159.39 59.71C159.41 62.72 161.88 65.15 164.96 65.15H210.42V57.21L172.31 57.53L172.32 57.54Z" fill="#231F20"/>
<path d="M185.54 39.33L185.64 39.22L190.75 33.64C190.75 33.64 174.15 22.23 175.13 10.4L175.08 5.59001C175.17 4.11001 173.98 2.90001 172.43 2.90001L161.15 3.24001L160.99 5.95001H162.41C162.72 5.95001 164.46 6.40001 164.41 7.86001L164.24 10.61C163.83 25.02 146.22 33.68 146.22 33.68L150.77 39.88C151.04 40.2 151.44 40.42 151.91 40.41L152.68 40.21C155.42 38.76 163.68 32.35 168.33 26.13C168.61 25.75 169.08 25.5 169.61 25.49C170.06 25.49 170.45 25.67 170.71 25.97L170.78 26.09V26.12H170.8C174.93 32.33 181.04 38.25 183.54 39.71H183.56L184.29 39.91C184.77 39.91 185.2 39.7 185.51 39.36L185.54 39.33Z" fill="#231F20"/>
<path d="M268.98 21.74H241.15C240.23 21.69 239.5 20.96 239.46 20.06L239.78 12.43H268.98V21.74ZM280.14 6.28001C280.14 5.32001 279.34 4.54001 278.37 4.54001H225.51V7.26001H226.91C227.23 7.29001 228.57 7.46001 228.62 8.93001L228.3 24.13C228.3 27.15 230.81 29.59 233.89 29.59H278.36C279.34 29.59 280.12 28.84 280.14 27.88V29.07V6.28001Z" fill="#231F20"/>
<path d="M242.52 57.54C241.54 57.54 240.75 56.76 240.75 55.81L241.05 50.3C241.05 48.79 239.81 47.58 238.26 47.58L226.47 47.9V50.63H228.18C228.5 50.65 229.85 50.83 229.9 52.3L229.58 59.72H229.6C229.61 62.73 232.1 65.16 235.16 65.16H281.74V57.22L242.5 57.54H242.52Z" fill="#231F20"/>
<path d="M286.04 34.82H222.15V42.74H250.57V52.13H259.31C260.29 52.13 261.09 51.35 261.09 50.4V42.74H286.04V34.82Z" fill="#231F20"/>
<path d="M143.49 24.78H132.89V3.17001C132.89 1.66001 131.64 0.450012 130.1 0.450012L118.95 0.770012V3.49001H120.35C120.67 3.52001 122.02 3.69001 122.06 5.16001L122.65 66.8H131.11C132.1 66.8 132.89 66.02 132.89 65.07V33.04H143.49V24.79V24.78Z" fill="#231F20"/>
<path d="M101.07 18.65L101.05 13.19H112.68C113.66 13.19 114.46 12.42 114.47 11.46V11.93V7.6V8.31001V5.27H76.97V13.2H89.7V18.66C89.84 24.38 88.8 35.84 73.15 46.2L78.35 52.03H78.37C78.63 52.33 79.03 52.52 79.47 52.52L80.43 52.16C83.23 50.08 90.34 44.22 94.48 36.93C94.74 36.5 95.21 36.23 95.75 36.23C96.29 36.23 96.77 36.51 97.03 36.94V36.96C101.52 44.3 107.65 49.85 110.39 51.9L111.29 52.21C111.72 52.21 112.1 52.03 112.37 51.74L117.62 46.21C102.57 35.27 101.04 24.28 101.05 18.67" fill="#231F20"/>
<path d="M13.88 123.568H5.48L19.016 83.056H27.56L41.672 123.568H33.272L30.2 114.4H16.808L13.88 123.568ZM19.16 107.152H27.752L23.384 94L19.16 107.152ZM68.6533 83.056H78.3013L84.2053 115.168L90.1573 83.056H98.1733L90.1093 123.52H78.7333L73.4533 92.704L68.2213 123.52H57.1333L49.0693 83.056H57.0853L63.0373 115.168L68.6533 83.056ZM114.17 123.568H105.77L119.306 83.056H127.85L141.962 123.568H133.562L130.49 114.4H117.098L114.17 123.568ZM119.45 107.152H128.042L123.674 94L119.45 107.152ZM179.856 123.568C178.8 121.04 177.76 118.544 176.736 116.08C175.712 113.584 174.672 111.04 173.616 108.448H164.736V123.568H156.384V83.056H174.624C176.96 83.056 178.928 83.28 180.528 83.728C182.16 84.176 183.488 84.864 184.512 85.792C185.536 86.72 186.272 87.904 186.72 89.344C187.2 90.784 187.44 92.496 187.44 94.48V97.744C187.44 102.704 185.52 105.872 181.68 107.248C182.864 110.064 184.048 112.784 185.232 115.408C186.416 118.032 187.616 120.752 188.832 123.568H179.856ZM173.712 101.344C175.632 101.344 177.008 101.008 177.84 100.336C178.704 99.664 179.136 98.56 179.136 97.024V94.48C179.136 92.944 178.704 91.84 177.84 91.168C177.008 90.496 175.632 90.16 173.712 90.16H164.736V101.344H173.712ZM203.342 123.568V83.056H221.918C224.414 83.056 226.542 83.328 228.302 83.872C230.094 84.416 231.534 85.248 232.622 86.368C233.742 87.488 234.558 88.928 235.07 90.688C235.582 92.448 235.838 94.544 235.838 96.976V109.696C235.838 112.128 235.582 114.224 235.07 115.984C234.558 117.712 233.742 119.136 232.622 120.256C231.534 121.408 230.094 122.24 228.302 122.752C226.542 123.296 224.414 123.568 221.918 123.568H203.342ZM221.006 116.512C223.31 116.512 224.974 116 225.998 114.976C227.022 113.92 227.534 112.144 227.534 109.648V97.024C227.534 94.496 227.022 92.72 225.998 91.696C225.006 90.672 223.342 90.16 221.006 90.16H211.694V116.512H221.006ZM252.276 116.512H269.268C270.9 116.512 272.084 116.144 272.82 115.408C273.556 114.64 273.924 113.584 273.924 112.24V110.896C273.924 109.552 273.492 108.512 272.628 107.776C271.796 107.04 270.644 106.656 269.172 106.624H260.964C257.508 106.624 254.996 105.792 253.428 104.128C251.86 102.464 251.076 100.032 251.076 96.832V92.848C251.076 89.648 251.86 87.216 253.428 85.552C254.996 83.888 257.508 83.056 260.964 83.056H280.596V90.16H264.084C262.452 90.16 261.268 90.544 260.532 91.312C259.796 92.048 259.428 93.088 259.428 94.432V95.248C259.428 96.688 259.796 97.76 260.532 98.464C261.268 99.168 262.452 99.52 264.084 99.52H272.388C275.812 99.52 278.308 100.4 279.876 102.16C281.476 103.92 282.276 106.384 282.276 109.552V113.776C282.276 116.976 281.492 119.408 279.924 121.072C278.356 122.736 275.844 123.568 272.388 123.568H252.276V116.512Z" fill="#707070"/>
</svg>
