<?xml version="1.0" encoding="UTF-8"?>
<svg id="Layer_1" data-name="Layer 1" xmlns="http://www.w3.org/2000/svg" version="1.1" viewBox="0 0 370 100">
  <defs>
    <style>
      .cls-1 {
        fill: #d91c5c;
      }

      .cls-1, .cls-2 {
        stroke-width: 0px;
      }

      .cls-2 {
        fill: #231f20;
      }
    </style>
  </defs>
  <path class="cls-1" d="M80.72,21.4c0,3.71-3.01,6.72-6.73,6.72h-13.47c-3.72,0-6.73-3.01-6.73-6.72V7.95c0-3.72,3.02-6.74,6.73-6.74h13.47c3.72,0,6.73,3.02,6.73,6.74v13.45Z"/>
  <path class="cls-1" d="M47.09,41.51h-13.6c-3.65-.07-6.58-3.04-6.58-6.72v-13.45c-.01-3.7-3.03-6.72-6.75-6.72H6.69C2.97,14.61-.04,17.63-.04,21.33v13.44c0,3.71,3.01,6.72,6.73,6.72h13.49c3.69.02,6.68,3,6.7,6.69v13.5c0,3.71,3.01,6.73,6.73,6.73h13.47c3.72,0,6.74-3.02,6.74-6.73v-13.47c0-3.71-3.02-6.72-6.74-6.72"/>
  <g>
    <path class="cls-2" d="M147.99,35.1h0c0-1.5-1.25-2.72-2.79-2.72l-11.14.64v2.72h1.4c.31.02,1.67.2,1.7,1.67l.14,12.87h-10.59v8.25l10.66.02.2,21.24h8.65c.99,0,1.78-.78,1.78-1.73h0v-42.95h0Z"/>
    <path class="cls-2" d="M110.99,89.54h0c-.98,0-1.78-.78-1.78-1.73l.63-9.19h0c0-1.51-1.25-2.72-2.79-2.72h0l-11.79.32v2.73h1.71c.32.02,1.67.2,1.73,1.67l-.64,11.1h.02c.02,3.01,2.5,5.44,5.57,5.44h46.02v-7.94l-38.67.32h0Z"/>
    <path class="cls-2" d="M112.31,45.04h11.27c.98,0,1.77-.78,1.78-1.72h0v-.3h0v-5.9h-35.95v7.93h11.74c.53,14.59-16.2,22.12-16.2,22.12l4.5,5.76h0l.07.1h0c.27.32.68.53,1.13.53l.66-.15h0c2.27-1.19,9.53-6.25,14.22-12.61h0c.27-.36.7-.6,1.2-.6s.93.24,1.2.59c4.52,6.1,10.82,11.71,13.39,13.1h0l.71.19c.53,0,.98-.27,1.24-.66l4.52-6.04s-16.43-8.06-15.51-22.33"/>
    <path class="cls-2" d="M292.82,35.16h0c0-1.51-1.25-2.72-2.79-2.72l-11.15.32v2.72h1.4c.32.03,1.67.2,1.7,1.67l.42,42.63h8.64c.99,0,1.78-.78,1.78-1.73h0v-42.88h0Z"/>
    <path class="cls-2" d="M256.32,89.54h0c-.98,0-1.77-.78-1.78-1.73l.63-9.98h0c0-1.5-1.25-2.72-2.8-2.72h0l-11.79.32v2.73h1.72c.32.02,1.67.2,1.72,1.67l-.63,11.88h0c.02,3.01,2.49,5.44,5.57,5.44h45.46v-7.94l-38.11.32h0Z"/>
    <path class="cls-2" d="M269.54,71.33l.1-.11,5.11-5.58s-16.6-11.41-15.62-23.24l-.05-4.81h0c.09-1.48-1.1-2.69-2.65-2.69l-11.28.34-.16,2.71h1.42c.31,0,2.05.45,2,1.91l-.17,2.75c-.41,14.41-18.02,23.07-18.02,23.07l4.55,6.2h0c.27.32.67.54,1.14.53l.77-.2h0c2.74-1.45,11-7.86,15.65-14.08h0c.28-.38.75-.63,1.28-.64.45,0,.84.18,1.1.48l.07.12v.03h.02c4.13,6.21,10.24,12.13,12.74,13.59h.02l.73.2c.48,0,.91-.21,1.22-.55h0l.03-.03Z"/>
    <path class="cls-2" d="M352.98,53.74h-27.83c-.92-.05-1.65-.78-1.69-1.68l.32-7.63h29.2v9.31h0ZM364.14,38.28c0-.96-.8-1.74-1.77-1.74h-52.86v2.72h1.4c.32.03,1.66.2,1.71,1.67l-.32,15.2c0,3.02,2.51,5.46,5.59,5.46h44.47c.98,0,1.76-.75,1.78-1.71v1.19-22.79"/>
    <path class="cls-2" d="M326.52,89.54h0c-.98,0-1.77-.78-1.77-1.73l.3-5.51c0-1.51-1.24-2.72-2.79-2.72h0l-11.79.32v2.73h1.71c.32.02,1.67.2,1.72,1.67l-.32,7.42h.02c.01,3.01,2.5,5.44,5.56,5.44h46.58v-7.94l-39.24.32h.02Z"/>
    <path class="cls-2" d="M370.04,66.82h-63.89v7.92h28.42v9.39h8.74c.98,0,1.78-.78,1.78-1.73h0v-7.66h24.95s0-7.92,0-7.92Z"/>
    <path class="cls-2" d="M227.49,56.78h-10.6v-21.61h0c0-1.51-1.25-2.72-2.79-2.72l-11.15.32v2.72h1.4c.32.03,1.67.2,1.71,1.67l.59,61.64h8.46c.99,0,1.78-.78,1.78-1.73v-32.03h10.6v-8.25h0Z"/>
    <path class="cls-2" d="M185.07,50.65l-.02-5.46h11.63c.98,0,1.78-.77,1.79-1.73v.47-4.33.71-3.04h-37.5v7.93h12.73v5.46c.14,5.72-.9,17.18-16.55,27.54l5.2,5.83h.02c.26.3.66.49,1.1.49l.96-.36c2.8-2.08,9.91-7.94,14.05-15.23.26-.43.73-.7,1.27-.7s1.02.28,1.28.71v.02c4.49,7.34,10.62,12.89,13.36,14.94l.9.31c.43,0,.81-.18,1.08-.47h0l5.25-5.53c-15.05-10.94-16.58-21.93-16.57-27.54"/>
  </g>
</svg>