<svg width="418" height="85" viewBox="0 0 418 85" fill="none" xmlns="http://www.w3.org/2000/svg">
<g clip-path="url(#clip0_36_36)">
<path d="M64.96 40.15C57.65 35.18 48.29 37.2 43.36 44.68C39.27 50.93 33.07 51.7 30.68 51.7C22.85 51.7 17.51 46.2 15.92 40.5C15.9 40.44 15.89 40.39 15.88 40.34C15.86 40.27 15.85 40.21 15.83 40.15C15.21 37.77 15.05 36.64 15.05 34.11C15.05 20.51 29.02 5.36 49.12 5.36C69.22 5.36 81.5 21.03 84.54 29.75C84.48 29.59 84.43 29.44 84.38 29.29C78.54 12.25 62.38 0 43.35 0C19.41 0 0 19.4 0 43.36C0 64.77 15.44 83.08 36.86 83.08C53.94 83.08 65.42 73.51 70.67 60.31C73.56 53.09 71.52 44.61 64.96 40.15Z" fill="#003763"/>
<path d="M84.81 30.59C82.27 22.09 70.41 5.35999 49.12 5.35999C29.02 5.35999 15.05 20.51 15.05 34.11C15.05 36.63 15.21 37.76 15.83 40.15C15.57 39.11 15.44 38.07 15.44 37.06C15.44 22.89 29.63 13.07 44.21 13.07C63.96 13.07 79.96 29.08 79.96 48.82C79.96 64.29 71.05 77.69 58.12 84.13C74.8 78.1 86.71 62.12 86.71 43.36C86.71 38.92 86.11 35 84.81 30.6V30.59Z" fill="#E4022D"/>
<path d="M124.51 47.29V44.7H107.33V40.07H147.17V44.7H129.94V47.29C130.44 47.44 130.99 47.59 131.48 47.79C132.77 48.34 133.92 49.03 134.92 49.93C135.92 50.88 136.71 51.92 137.31 53.12C137.86 54.37 138.16 55.66 138.16 57.06C138.16 58.46 137.86 59.75 137.31 60.94C136.71 62.18 135.91 63.28 134.92 64.17C133.92 65.07 132.78 65.81 131.48 66.31C130.14 66.86 128.74 67.11 127.25 67.11C125.76 67.11 124.31 66.86 123.02 66.31C121.68 65.81 120.53 65.06 119.58 64.17C118.59 63.28 117.79 62.18 117.24 60.94C116.64 59.74 116.34 58.45 116.34 57.06C116.34 55.67 116.64 54.37 117.24 53.12C117.79 51.92 118.59 50.88 119.58 49.93C120.53 49.03 121.67 48.34 123.02 47.79C123.52 47.59 124.02 47.44 124.51 47.29ZM144.38 26.92H129.74L145.18 35.14L142.74 39.12L127.25 30.85L111.76 39.12L109.32 35.14L124.76 26.92H110.12V22.34H144.38V26.92ZM132.83 57.05C132.83 55.56 132.28 54.26 131.19 53.17C130.04 52.12 128.75 51.57 127.25 51.57C125.75 51.57 124.46 52.12 123.37 53.17C122.22 54.26 121.68 55.56 121.68 57.05C121.68 58.54 122.23 59.84 123.37 60.88C124.47 61.97 125.76 62.52 127.25 62.52C128.74 62.52 130.04 61.97 131.19 60.88C132.29 59.83 132.83 58.54 132.83 57.05Z" fill="#575756"/>
<path d="M168.94 57.1999V44.7499H174.37V57.1999H191.6V61.9799H151.76V57.1999H168.94ZM171.68 30.7599L157.24 48.8399L153.06 45.6999L171.69 22.4399L190.32 45.6999L186.14 48.8399L171.7 30.7599H171.68Z" fill="#575756"/>
<path d="M216.71 45.75H197.94V22.74H203.07V28.97H211.69V22.74H216.72V45.75H216.71ZM199.78 64.3301V49.84H205.16V59.55H236.09V64.3301H199.78ZM211.68 33.6H203.06V41.12H211.68V33.6ZM222.24 21.85H227.32V49.34H222.24V36.09H217.71V31.3601H222.24V21.85ZM230.51 21.8H235.69V49.59H230.51V21.8Z" fill="#575756"/>
<path d="M252.52 26.38V21.75H258.3V26.38H268.66V31.01H257.65L269.55 57.65L265.07 59.64L255.41 37.63L245.85 59.99L241.27 57.95L253.17 31.01H241.71V26.38H252.52ZM275.23 43.81H266.86V39.03H275.23V21.8H280.61V65.18H275.23V43.82V43.81Z" fill="#575756"/>
<path d="M308.81 59.49H303.43V29.31H286.8V24.48H308.81V59.49ZM319.67 21.79H325.05V65.17H319.67V21.8V21.79Z" fill="#575756"/>
<path d="M356.82 33.15C356.82 34.69 356.52 36.14 355.93 37.43C355.28 38.78 354.44 39.92 353.39 40.92C352.35 41.91 351.15 42.71 349.75 43.26C348.31 43.86 346.81 44.16 345.22 44.16C343.63 44.16 342.13 43.86 340.74 43.26C339.3 42.71 338.05 41.91 337.05 40.92C335.95 39.92 335.16 38.78 334.56 37.43C333.91 36.14 333.61 34.69 333.61 33.15C333.61 31.61 333.91 30.21 334.56 28.82C335.16 27.53 335.95 26.33 337.05 25.33C338.05 24.33 339.29 23.54 340.74 22.94C342.14 22.39 343.63 22.09 345.22 22.09C346.81 22.09 348.31 22.39 349.75 22.94C351.14 23.54 352.34 24.33 353.39 25.33C354.44 26.33 355.28 27.52 355.93 28.82C356.53 30.22 356.82 31.66 356.82 33.15ZM336.5 46H341.78V50.08H365.19V46H370.47V64.33H336.51V46H336.5ZM351.64 33.15C351.64 31.41 350.99 29.91 349.8 28.62C348.51 27.37 347.01 26.73 345.27 26.73C343.53 26.73 341.98 27.38 340.74 28.62C339.45 29.92 338.85 31.41 338.85 33.15C338.85 34.89 339.45 36.44 340.74 37.63C341.99 38.93 343.48 39.52 345.27 39.52C347.06 39.52 348.51 38.92 349.8 37.63C350.99 36.43 351.64 34.94 351.64 33.15ZM365.19 54.46H341.78V59.84H365.19V54.46ZM358.22 30.8H365.09V21.79H370.47V44.75H365.09V35.54H358.22V30.81V30.8Z" fill="#575756"/>
<path d="M377.9 49.2401H417.74V54.0201H400.51V65.17H395.08V54.0201H377.9V49.2401ZM386.41 28.0301H409.22V22.55H414.55V43.42H381.08V22.55H386.41V28.0301ZM409.22 32.71H386.41V38.69H409.22V32.71Z" fill="#575756"/>
</g>
<defs>
<clipPath id="clip0_36_36">
<rect width="417.74" height="84.14" fill="white"/>
</clipPath>
</defs>
</svg>
